<svg width="109" height="34" viewBox="0 0 109 34" fill="none" xmlns="http://www.w3.org/2000/svg">
<g clip-path="url(#clip0_10713_2262)">
<path fill-rule="evenodd" clip-rule="evenodd" d="M26.2745 0C23.9148 0 21.9928 1.99387 21.9928 4.42787C21.9928 6.86212 23.9148 8.84676 26.2745 8.84676C28.6329 8.84676 30.5549 6.86212 30.5549 4.42787C30.5549 1.99387 28.6329 0 26.2745 0ZM104.711 0C102.351 0 100.429 1.99387 100.429 4.42787C100.429 6.86109 102.352 8.84676 104.711 8.84676C107.069 8.84676 109 6.8634 109 4.42787C109 1.99285 107.07 0 104.711 0ZM26.2745 1.15513C28.0319 1.15513 29.4464 2.61435 29.4464 4.42787C29.4464 6.24138 28.0319 7.70009 26.2745 7.70009C24.5166 7.70009 23.102 6.24138 23.102 4.42787C23.102 2.61435 24.5166 1.15513 26.2745 1.15513ZM0 10.0178V33.325H12.5214C13.9415 33.325 15.1934 33.1759 16.2691 32.8662C17.3666 32.5327 18.2817 32.0726 19.0135 31.4956C19.7449 30.9174 20.2901 30.2439 20.656 29.4664C21.0214 28.6669 21.2064 27.802 21.2064 26.8692V26.797C21.2064 25.1992 20.7739 23.9659 19.9127 23.101C19.0523 22.2351 17.8902 21.5791 16.4267 21.1351C17.6539 20.6911 18.6315 20.0499 19.3623 19.2055C20.0944 18.3396 20.4636 17.2052 20.4636 15.807V15.7442C20.4636 14.9439 20.3372 14.2422 20.0788 13.6425C19.8211 13.0425 19.483 12.532 19.0739 12.1098C18.4068 11.4214 17.5555 10.9039 16.5238 10.5499C15.5122 10.194 14.2227 10.0178 12.6523 10.0178H0ZM22.4995 33.325H30.0484V10.0173H22.4995V33.325ZM31.4814 10.0178V16.6083H38.1311V33.325H45.6892V16.6083H52.3285V10.0178H31.4814ZM74.1992 10.0178L83.366 33.4972H90.5907L99.7563 10.0178H91.4382L87.0432 23.101L82.6568 10.0178H74.1992ZM100.937 33.325H108.486V10.0173H100.937V33.325ZM7.3585 15.9151H10.6245C12.2384 15.9151 13.0455 16.4446 13.0455 17.5104V17.5734C13.0455 18.6388 12.2432 19.1781 10.6511 19.1781V19.1702H7.3585V15.9161V15.9151ZM64.2745 9.51284C62.531 9.51284 60.9119 9.83409 59.4062 10.4774C57.9008 11.0989 56.5846 11.9737 55.4657 13.0822C54.3684 14.171 53.4988 15.4555 52.8541 16.9427C52.2292 18.4073 51.9184 19.9879 51.9184 21.6767V21.7384C51.9184 23.4259 52.2292 25.0134 52.8541 26.5001C53.4777 27.9649 54.3337 29.2438 55.4307 30.3326C56.5501 31.4198 57.8517 32.2708 59.337 32.8926C60.8431 33.5144 62.4695 33.8315 64.2122 33.8315C65.9552 33.8315 67.5815 33.5144 69.0889 32.8926C70.5943 32.2491 71.8967 31.3847 72.9932 30.2957C74.1121 29.1851 74.9825 27.9019 75.6061 26.4358C76.2518 24.9491 76.5753 23.3629 76.5753 21.6767V21.6044C76.5753 19.9169 76.2647 18.3442 75.6408 16.8807C75.018 15.3917 74.1389 14.0988 73.02 13.0113C71.9222 11.9243 70.6296 11.072 69.1234 10.45C67.6381 9.82923 66.0165 9.51284 64.2745 9.51284ZM64.2122 16.4101C64.9438 16.4101 65.5972 16.5545 66.1786 16.844C66.7595 17.1317 67.2553 17.5183 67.6639 18.0058C68.0728 18.4946 68.3829 19.0669 68.5991 19.7105C68.8352 20.3322 68.9571 20.9883 68.9571 21.6767V21.7384C68.9571 22.4283 68.8486 23.0828 68.6341 23.7059C68.4174 24.3264 68.1068 24.8836 67.6987 25.3726C67.2891 25.8394 66.7945 26.2108 66.2131 26.5001C65.6317 26.789 64.9927 26.9323 64.2825 26.9323C63.5509 26.9323 62.889 26.789 62.3081 26.5001C61.7269 26.2108 61.2312 25.8255 60.8225 25.337C60.4142 24.8482 60.0971 24.2895 59.8615 23.6677C59.6461 23.0244 59.5381 22.3635 59.5381 21.6767V21.6044C59.5381 20.9161 59.6461 20.2597 59.8615 19.6387C60.076 19.0165 60.3873 18.4728 60.7965 18.0058C61.2048 17.5183 61.7011 17.1317 62.2825 16.844C62.8622 16.5545 63.5024 16.4101 64.2122 16.4101ZM7.3585 23.9659H11.1665C11.9855 23.9659 12.6016 24.1242 13.0108 24.4352C13.4201 24.746 13.6222 25.1592 13.6222 25.6708V25.7325C13.6222 26.2441 13.4067 26.6584 12.975 26.9691C12.5664 27.2801 11.9592 27.4372 11.1409 27.4372H7.3585V23.9659Z" fill="#CB3036"/>
</g>
<defs>
<clipPath id="clip0_10713_2262">
<rect width="109" height="34" fill="white"/>
</clipPath>
</defs>
</svg>
